<?xml version="1.0" standalone="no"?>
<!DOCTYPE svg PUBLIC "-//W3C//DTD SVG 20010904//EN"
 "http://www.w3.org/TR/2001/REC-SVG-20010904/DTD/svg10.dtd">
<svg version="1.0" xmlns="http://www.w3.org/2000/svg" viewBox="0 0 50.000000 50.000000"
 preserveAspectRatio="xMidYMid meet">

<g transform="translate(0.000000,50.000000) scale(0.100000,-0.100000)" stroke="none">
<path d="M216 401 c-98 -98 -99 -100 -87 -129 21 -51 11 -74 -43 -102 -83 -42
-115 -150 -50 -166 46 -12 102 23 137 84 29 52 31 54 66 49 20 -3 43 -8 51
-11 10 -4 47 25 113 92 l97 97 -93 93 -92 92 -99 -99z m179 -12 l80 -80 -28
-25 c-33 -29 -51 -31 -44 -5 7 28 -11 53 -38 49 -27 -3 -29 0 -20 43 10 43 -5
54 -43 35 -58 -30 -68 -16 -26 33 14 17 29 31 33 31 3 0 42 -36 86 -81z m-72
-34 c-6 -47 -3 -50 40 -46 13 2 17 -5 17 -28 0 -16 5 -33 10 -36 13 -8 -6 -35
-24 -35 -15 0 -156 142 -156 157 0 19 18 25 38 12 14 -9 25 -8 48 4 16 9 30
16 31 17 2 0 0 -20 -4 -45z m4 -192 c-20 -21 -27 -22 -54 -12 -59 20 -85 9
-116 -49 -30 -55 -72 -86 -110 -80 -14 2 -23 11 -25 25 -6 38 25 80 80 110 58
31 69 57 49 115 -10 27 -8 35 11 55 l22 24 83 -83 83 -83 -23 -22z"/>
<path d="M54 79 c-10 -17 13 -36 27 -22 12 12 4 33 -11 33 -5 0 -12 -5 -16
-11z"/>
</g>
</svg>
