<svg xmlns="http://www.w3.org/2000/svg"  viewBox="0 0 48 48" baseProfile="basic"><path d="M32.184,7.888C29.939,6.632,28,5.549,28,4c0-0.552-0.448-1-1-1h-4c-0.552,0-1,0.448-1,1v2v19.75	C20.746,25.256,19.389,25,18,25c-5.514,0-10,4.038-10,9c0,0.338,0,1.662,0,2c0,4.962,4.486,9,10,9s10-4.038,10-9V17.147	c1.726,0.431,4.366,1.801,4.898,4.041c-0.387,2.52-1.776,5.332-1.793,5.365C31.035,26.695,31,26.859,31,27s0,1.792,0,2	s0.101,0.515,0.293,0.707l2,2c0.375,0.375,1.039,0.375,1.414,0C34.923,31.491,40,26.341,40,20c0-0.349,0-1.666,0-2	C40,12.257,35.667,9.834,32.184,7.888z"/><path fill="#fff" d="M27,4h-2h-2v23.349C21.57,26.498,19.851,26,18,26c-4.971,0-9,3.582-9,8s4.029,8,9,8s9-3.582,9-8V14 c2,0,7,2,7,6c0,3-2,7-2,7l2,2c0,0,5-5,5-11C39,9,27,9,27,4z"/><path fill="none" stroke="#000" stroke-linecap="round" stroke-linejoin="round" stroke-miterlimit="10" stroke-width="2" d="M27,4h-2h-2v23.349C21.57,26.498,19.851,26,18,26c-4.971,0-9,3.582-9,8s4.029,8,9,8s9-3.582,9-8V14c2,0,7,2,7,6c0,3-2,7-2,7l2,2 c0,0,5-5,5-11C39,9,27,9,27,4z"/></svg>