<?xml version="1.0" standalone="no"?>
<!DOCTYPE svg PUBLIC "-//W3C//DTD SVG 20010904//EN"
 "http://www.w3.org/TR/2001/REC-SVG-20010904/DTD/svg10.dtd">
<svg version="1.0" xmlns="http://www.w3.org/2000/svg" viewBox="0 0 50.000000 50.000000"
 preserveAspectRatio="xMidYMid meet">

<g transform="translate(0.000000,50.000000) scale(0.100000,-0.100000)" stroke="none">
<path d="M182 406 c-60 -57 -72 -65 -112 -68 l-45 -3 0 -85 0 -85 45 -3 c40
-3 52 -11 111 -68 37 -35 74 -64 83 -64 24 0 27 29 24 240 -4 235 -4 235 -106
136z m88 -156 c0 -110 -3 -200 -7 -200 -4 0 -38 30 -75 67 l-68 67 0 65 0 65
67 68 c37 38 71 68 75 68 5 0 8 -90 8 -200z m-170 0 l0 -70 -30 0 -30 0 0 70
0 70 30 0 30 0 0 -70z"/>
<path d="M310 410 c0 -5 7 -10 15 -10 60 0 135 -84 135 -150 0 -66 -75 -150
-135 -150 -8 0 -15 -4 -15 -10 0 -30 85 6 127 53 56 64 56 150 0 214 -42 47
-127 83 -127 53z"/>
<path d="M310 350 c0 -5 7 -10 16 -10 28 0 74 -56 74 -90 0 -34 -46 -90 -74
-90 -9 0 -16 -4 -16 -10 0 -29 75 11 95 50 8 16 15 38 15 50 0 12 -7 34 -15
50 -20 39 -95 79 -95 50z"/>
<path d="M310 291 c0 -5 7 -11 15 -15 8 -3 15 -15 15 -26 0 -11 -7 -23 -15
-26 -16 -7 -21 -24 -6 -24 16 0 41 31 41 50 0 19 -25 50 -41 50 -5 0 -9 -4 -9
-9z"/>
</g>
</svg>
