<?xml version="1.0" standalone="no"?>
<!DOCTYPE svg PUBLIC "-//W3C//DTD SVG 20010904//EN"
 "http://www.w3.org/TR/2001/REC-SVG-20010904/DTD/svg10.dtd">
<svg version="1.0" xmlns="http://www.w3.org/2000/svg" viewBox="0 0 50.000000 50.000000"
 preserveAspectRatio="xMidYMid meet">

<g transform="translate(0.000000,50.000000) scale(0.100000,-0.100000)" stroke="none">
<path d="M56 444 c-24 -23 -24 -365 0 -388 23 -24 365 -24 388 0 24 23 24 365
0 388 -23 24 -365 24 -388 0z m379 -194 l0 -185 -185 0 -185 0 -3 175 c-1 96
0 180 3 187 3 11 44 13 187 11 l183 -3 0 -185z"/>
<path d="M170 250 c0 -66 3 -120 6 -120 12 0 194 113 194 120 0 7 -182 120
-194 120 -3 0 -6 -54 -6 -120z m113 36 c26 -15 47 -32 47 -36 0 -4 -21 -21
-47 -36 -27 -15 -58 -34 -70 -42 l-23 -14 0 92 0 92 23 -14 c12 -8 43 -27 70
-42z"/>
</g>
</svg>
