<?xml version="1.0" standalone="no"?>
<!DOCTYPE svg PUBLIC "-//W3C//DTD SVG 20010904//EN"
 "http://www.w3.org/TR/2001/REC-SVG-20010904/DTD/svg10.dtd">
<svg version="1.0" xmlns="http://www.w3.org/2000/svg" viewBox="0 0 50.000000 50.000000"
 preserveAspectRatio="xMidYMid meet">

<g transform="translate(0.000000,50.000000) scale(0.100000,-0.100000)" stroke="none">
<path d="M94 426 c-3 -8 -4 -29 -2 -48 2 -26 8 -34 26 -36 17 -3 25 2 29 17 4
16 13 21 39 21 l34 0 0 -129 c0 -122 -1 -129 -21 -134 -15 -4 -20 -12 -17 -29
3 -21 8 -23 68 -23 60 0 65 2 68 23 3 17 -2 25 -17 29 -20 5 -21 12 -21 134
l0 129 34 0 c26 0 35 -5 39 -21 4 -15 12 -20 29 -17 20 3 23 9 23 48 l0 45
-153 3 c-125 2 -153 0 -158 -12z m296 -36 c0 -16 -4 -30 -10 -30 -5 0 -10 9
-10 20 0 18 -7 20 -55 20 l-55 0 0 -150 c0 -143 1 -150 20 -150 11 0 20 -4 20
-10 0 -5 -22 -10 -50 -10 -27 0 -50 5 -50 10 0 6 9 10 20 10 19 0 20 7 20 150
l0 150 -55 0 c-48 0 -55 -2 -55 -20 0 -11 -4 -20 -10 -20 -5 0 -10 14 -10 30
l0 30 140 0 140 0 0 -30z"/>
</g>
</svg>
