<?xml version="1.0" standalone="no"?>
<!DOCTYPE svg PUBLIC "-//W3C//DTD SVG 20010904//EN"
 "http://www.w3.org/TR/2001/REC-SVG-20010904/DTD/svg10.dtd">
<svg version="1.0" xmlns="http://www.w3.org/2000/svg" viewBox="0 0 64.000000 64.000000"
 preserveAspectRatio="xMidYMid meet">

<g transform="translate(0.000000,64.000000) scale(0.100000,-0.100000)" stroke="none">
<path d="M242 407 c-39 -40 -72 -79 -72 -87 0 -18 140 -160 158 -160 26 0 10
27 -55 92 l-67 68 67 68 c37 37 67 73 67 80 0 27 -29 9 -98 -61z"/>
<path d="M372 407 c-39 -40 -72 -79 -72 -87 0 -18 140 -160 158 -160 26 0 10
27 -55 92 l-67 68 67 68 c37 37 67 73 67 80 0 27 -29 9 -98 -61z"/>
</g>
</svg>
