<?xml version="1.0" standalone="no"?>
<!DOCTYPE svg PUBLIC "-//W3C//DTD SVG 20010904//EN"
 "http://www.w3.org/TR/2001/REC-SVG-20010904/DTD/svg10.dtd">
<svg version="1.0" xmlns="http://www.w3.org/2000/svg" viewBox="0 0 64.000000 64.000000"
 preserveAspectRatio="xMidYMid meet">

<g transform="translate(0.000000,64.000000) scale(0.100000,-0.100000)" stroke="none">
<path d="M273 622 c-20 -12 -33 -60 -33 -117 0 -61 -13 -75 -74 -75 -80 0 -84
20 -16 75 47 38 63 65 39 65 -6 0 -35 -21 -65 -46 -79 -68 -72 -111 20 -121
52 -6 111 11 122 35 4 9 10 49 13 87 l6 70 125 0 125 0 3 -273 2 -272 -25 -10
c-34 -13 -356 -13 -389 0 l-26 10 0 155 c0 131 -2 155 -15 155 -13 0 -15 -24
-15 -154 0 -216 -19 -201 250 -201 210 0 212 0 231 24 18 22 19 42 19 290 0
225 -2 270 -16 289 -14 21 -22 22 -142 22 -70 0 -132 -4 -139 -8z"/>
<path d="M170 321 c0 -12 29 -23 41 -15 18 10 9 24 -16 24 -14 0 -25 -4 -25
-9z"/>
<path d="M270 321 c0 -15 29 -21 100 -21 71 0 100 6 100 21 0 5 -45 9 -100 9
-55 0 -100 -4 -100 -9z"/>
<path d="M170 245 c0 -9 9 -15 25 -15 16 0 25 6 25 15 0 9 -9 15 -25 15 -16 0
-25 -6 -25 -15z"/>
<path d="M270 245 c0 -12 18 -15 100 -15 82 0 100 3 100 15 0 12 -18 15 -100
15 -82 0 -100 -3 -100 -15z"/>
<path d="M170 171 c0 -12 29 -23 41 -15 18 10 9 24 -16 24 -14 0 -25 -4 -25
-9z"/>
<path d="M270 171 c0 -15 29 -21 100 -21 71 0 100 6 100 21 0 5 -45 9 -100 9
-55 0 -100 -4 -100 -9z"/>
</g>
</svg>
