<?xml version="1.0" standalone="no"?>
<!DOCTYPE svg PUBLIC "-//W3C//DTD SVG 20010904//EN"
 "http://www.w3.org/TR/2001/REC-SVG-20010904/DTD/svg10.dtd">
<svg version="1.0" xmlns="http://www.w3.org/2000/svg" viewBox="0 0 64.000000 64.000000"
 preserveAspectRatio="xMidYMid meet">

<g transform="translate(0.000000,64.000000) scale(0.100000,-0.100000)" stroke="none">
<path d="M176 594 c-24 -23 -24 -525 0 -548 12 -13 40 -16 143 -16 111 0 130
2 144 18 15 16 17 50 17 275 0 219 -2 258 -16 271 -23 23 -265 23 -288 0z
m104 -34 c0 -5 18 -10 40 -10 22 0 40 5 40 10 0 6 18 10 40 10 l40 0 0 -250 0
-250 -120 0 -120 0 0 250 0 250 40 0 c22 0 40 -4 40 -10z"/>
</g>
</svg>
