<?xml version="1.0" standalone="no"?>
<!DOCTYPE svg PUBLIC "-//W3C//DTD SVG 20010904//EN"
 "http://www.w3.org/TR/2001/REC-SVG-20010904/DTD/svg10.dtd">
<svg version="1.0" xmlns="http://www.w3.org/2000/svg" viewBox="0 0 50.000000 50.000000"
 preserveAspectRatio="xMidYMid meet">

<g transform="translate(0.000000,50.000000) scale(0.100000,-0.100000)"
fill="#fff" stroke="none">
<path d="M65 455 c-28 -27 -32 -61 -10 -85 14 -15 12 -23 -14 -81 -17 -35 -33
-87 -37 -116 l-6 -52 48 -31 c53 -33 159 -70 204 -70 45 0 151 37 204 70 l48
31 -6 52 c-4 29 -20 81 -37 116 -26 58 -28 66 -14 81 22 24 18 58 -10 85 -30
31 -58 32 -84 4 -17 -19 -31 -22 -101 -22 -70 0 -84 3 -101 22 -26 28 -54 27
-84 -4z m72 -14 c11 -41 215 -41 226 0 6 23 34 25 59 2 22 -19 23 -46 4 -62
-12 -10 -17 -8 -26 9 -6 11 -8 30 -5 40 4 11 2 20 -4 20 -5 0 -13 -9 -16 -21
-5 -14 6 -41 35 -89 22 -39 48 -100 57 -136 l17 -67 -30 -24 c-108 -87 -301
-86 -409 1 l-30 24 17 67 c10 36 36 97 59 135 28 48 39 75 34 89 -3 12 -11 21
-16 21 -6 0 -8 -9 -4 -20 3 -10 1 -29 -5 -40 -9 -17 -14 -19 -26 -9 -19 15
-18 38 3 61 21 24 54 23 60 -1z"/>
<path d="M157 323 c-14 -14 -6 -45 13 -50 20 -5 20 -23 -1 -81 -13 -33 -11
-76 3 -90 7 -7 40 -12 78 -12 38 0 71 5 78 12 14 14 16 57 3 90 -21 59 -22 76
0 81 15 4 20 12 17 29 -4 29 -45 38 -55 12 -6 -16 7 -98 21 -134 5 -12 -6 -15
-64 -15 -58 0 -69 3 -64 15 14 35 27 118 21 133 -6 17 -38 23 -50 10z m33 -23
c0 -5 -4 -10 -10 -10 -5 0 -10 5 -10 10 0 6 5 10 10 10 6 0 10 -4 10 -10z
m140 0 c0 -5 -4 -10 -10 -10 -5 0 -10 5 -10 10 0 6 5 10 10 10 6 0 10 -4 10
-10z m-29 -161 c32 -17 14 -25 -53 -23 -79 2 -77 2 -54 19 23 17 79 20 107 4z"/>
</g>
</svg>
