<?xml version="1.0" standalone="no"?>
<!DOCTYPE svg PUBLIC "-//W3C//DTD SVG 20010904//EN"
 "http://www.w3.org/TR/2001/REC-SVG-20010904/DTD/svg10.dtd">
<svg version="1.0" xmlns="http://www.w3.org/2000/svg"
 viewBox="0 0 50.000000 50.000000"
 preserveAspectRatio="xMidYMid meet">

<g transform="translate(0.000000,50.000000) scale(0.100000,-0.100000)"
 stroke="none">
<path d="M96 454 c-22 -21 -20 -47 4 -69 18 -16 20 -31 20 -133 0 -104 -2
-118 -21 -138 -39 -42 -3 -96 51 -79 31 10 37 52 11 79 -14 15 -21 35 -21 64
l0 43 30 -22 c19 -15 49 -24 87 -27 39 -3 65 -11 80 -24 26 -25 68 -18 78 12
17 54 -37 90 -79 51 -45 -43 -150 -20 -181 39 -22 43 -20 113 5 135 11 10 20
26 20 36 0 23 -26 49 -50 49 -10 0 -26 -7 -34 -16z m59 -34 c0 -18 -6 -26 -23
-28 -24 -4 -38 18 -28 44 3 9 15 14 28 12 17 -2 23 -10 23 -28z m240 -240 c0
-18 -6 -26 -23 -28 -24 -4 -38 18 -28 44 3 9 15 14 28 12 17 -2 23 -10 23 -28z
m-240 -100 c0 -18 -6 -26 -23 -28 -13 -2 -25 3 -28 12 -10 26 4 48 28 44 17
-2 23 -10 23 -28z"/>
</g>
</svg>
