<?xml version="1.0" standalone="no"?>
<!DOCTYPE svg PUBLIC "-//W3C//DTD SVG 20010904//EN"
 "http://www.w3.org/TR/2001/REC-SVG-20010904/DTD/svg10.dtd">
<svg version="1.0" xmlns="http://www.w3.org/2000/svg" viewBox="0 0 24.000000 24.000000"
 preserveAspectRatio="xMidYMid meet">

<g transform="translate(0.000000,24.000000) scale(0.100000,-0.100000)" stroke="none">
<path d="M24 186 c-3 -9 -4 -40 -2 -71 2 -39 -1 -55 -9 -55 -7 0 -13 -4 -13
-10 0 -5 23 -10 50 -10 43 0 50 3 50 20 0 16 -7 20 -30 20 -29 0 -30 1 -30 50
l0 50 80 0 c79 0 80 0 80 -25 0 -14 5 -25 11 -25 6 0 9 14 7 33 l-3 32 -93 3
c-75 2 -93 0 -98 -12z"/>
<path d="M160 105 c-7 -8 -19 -15 -26 -15 -8 0 -14 -4 -14 -10 0 -5 6 -10 13
-10 8 0 7 -4 -3 -10 -12 -8 -13 -11 -1 -19 11 -7 11 -9 0 -13 -27 -10 2 -22
51 -22 49 0 78 12 51 22 -11 4 -11 6 0 13 12 8 11 11 -1 19 -10 6 -11 10 -2
10 6 0 12 5 12 10 0 6 -6 10 -14 10 -7 0 -19 7 -26 15 -7 8 -16 15 -20 15 -4
0 -13 -7 -20 -15z m38 -52 c-2 -17 -9 -28 -18 -28 -9 0 -16 11 -18 28 -3 22 1
27 18 27 17 0 21 -5 18 -27z"/>
</g>
</svg>
