<?xml version="1.0" standalone="no"?>
<!DOCTYPE svg PUBLIC "-//W3C//DTD SVG 20010904//EN"
 "http://www.w3.org/TR/2001/REC-SVG-20010904/DTD/svg10.dtd">
<svg version="1.0" xmlns="http://www.w3.org/2000/svg" viewBox="0 0 50.000000 50.000000"
 preserveAspectRatio="xMidYMid meet">

<g transform="translate(0.000000,50.000000) scale(0.100000,-0.100000)" stroke="none">
<path d="M12 388 c-17 -17 -17 -279 0 -296 17 -17 459 -17 476 0 17 17 17 279
0 296 -17 17 -459 17 -476 0z m132 -100 l26 -33 26 33 c14 17 34 32 45 32 17
0 19 -8 19 -80 0 -73 -2 -80 -20 -80 -17 0 -20 7 -20 53 l0 52 -25 -30 -25
-30 -25 30 -25 30 0 -52 c0 -46 -3 -53 -20 -53 -18 0 -20 7 -20 80 0 72 2 80
19 80 11 0 31 -15 45 -32z m246 -8 c0 -37 2 -40 27 -40 l28 0 -38 -37 -37 -38
-37 38 -38 37 28 0 c25 0 27 3 27 40 0 33 3 40 20 40 17 0 20 -7 20 -40z"/>
</g>
</svg>
